<?xml version="1.0" encoding="UTF-8" standalone="no"?>
<svg
   xmlns:dc="http://purl.org/dc/elements/1.1/"
   xmlns:cc="http://creativecommons.org/ns#"
   xmlns:rdf="http://www.w3.org/1999/02/22-rdf-syntax-ns#"
   xmlns:svg="http://www.w3.org/2000/svg"
   xmlns="http://www.w3.org/2000/svg"
   xmlns:sodipodi="http://sodipodi.sourceforge.net/DTD/sodipodi-0.dtd"
   xmlns:inkscape="http://www.inkscape.org/namespaces/inkscape"
   width="700"
   height="700"
   viewBox="0 0 700 700"
   version="1.1"
   id="svg8"
   sodipodi:docname="nu-invest-logo.svg"
   style="fill:none"
   inkscape:export-filename="C:\Users\alex\sites\nu-invest-logo-0.png"
   inkscape:export-xdpi="561.73712"
   inkscape:export-ydpi="561.73712"
   inkscape:version="0.92.3 (2405546, 2018-03-11)">
  <metadata
     id="metadata14">
    <rdf:RDF>
      <cc:Work
         rdf:about="">
        <dc:format>image/svg+xml</dc:format>
        <dc:type
           rdf:resource="http://purl.org/dc/dcmitype/StillImage" />
        <dc:title></dc:title>
      </cc:Work>
    </rdf:RDF>
  </metadata>
  <defs
     id="defs12" />
  <sodipodi:namedview
     pagecolor="#ffffff"
     bordercolor="#666666"
     borderopacity="1"
     objecttolerance="10"
     gridtolerance="10"
     guidetolerance="10"
     inkscape:pageopacity="0"
     inkscape:pageshadow="2"
     inkscape:window-width="1600"
     inkscape:window-height="838"
     id="namedview10"
     showgrid="false"
     inkscape:zoom="0.55327057"
     inkscape:cx="394.19658"
     inkscape:cy="261.27863"
     inkscape:window-x="-8"
     inkscape:window-y="-8"
     inkscape:window-maximized="1"
     inkscape:current-layer="svg8" />
  <path
     d="m 366.60051,332.66386 c -7.30442,0 -13.17799,3.69173 -16.64048,10.00009 v -8.84988 H 337.4698 v 56.05587 h 12.49419 v -30.37183 c 0,-8.84594 5.41902,-14.53374 13.54953,-14.53374 7.98032,0 13.24914,5.76686 13.24914,14.53374 v 30.37183 h 12.56929 v -31.98845 c 0.0791,-15.60884 -8.65621,-25.21763 -22.72749,-25.21763 z m 84.96919,1.73519 h -13.96061 l -15.03571,38.57745 -15.11477,-38.57745 h -13.80646 l 23.47454,55.47484 h 10.96848 z m 59.64484,26.11488 c 0,-16.2966 -12.26494,-27.85007 -27.3639,-27.85007 -16.09896,0 -28.82241,12.54953 -28.82241,28.77102 0,16.68001 12.72345,29.30463 29.05166,29.30463 13.7195,0 24.37573,-7.72734 26.44295,-19.51007 h -12.79855 c -1.1502,4.82219 -6.51389,7.9566 -13.41514,7.9566 -9.04357,0 -14.71556,-5.12653 -16.32822,-13.39143 h 42.85021 c 0.22925,-0.9921 0.3834,-3.82217 0.3834,-5.27673 z m -42.85021,-5.50598 c 1.84191,-6.88545 7.2807,-10.86572 14.87366,-10.86572 7.6641,0 13.02779,4.43878 14.178,10.86572 z m 76.7122,35.73156 c 12.25308,0 21.46265,-7.49809 21.46265,-17.597 0,-23.2611 -32.26908,-12.93293 -32.26908,-24.1781 0,-3.51782 3.50201,-5.73919 8.52182,-5.73919 5.78662,0 9.66412,3.05932 10.20168,6.88545 h 12.70763 c -1.2174,-11.32422 -11.26098,-17.44681 -22.68006,-17.44681 -12.93688,0 -21.00415,7.42299 -21.00415,17.1385 0,21.19783 32.11493,11.55743 32.11493,23.4943 0,3.90122 -3.65221,6.50204 -9.73923,6.50204 -6.24116,0 -11.03567,-3.21347 -11.49418,-8.11075 h -12.17403 c 1.21741,12.01592 10.72738,19.05156 24.35202,19.05156 z m 63.73974,-44.72375 v -12.18588 h -14.58512 v -15.03572 h -12.75507 v 15.03967 h -10.6167 v 12.18589 h 10.6167 v 22.9014 c 0,14.26891 8.17004,21.82235 20.54565,21.82235 2.06327,0 4.88938,-0.22926 6.87359,-0.69566 v -11.87363 a 17.770921,17.770921 0 0 1 -4.12652,0.46245 c -6.18583,0 -10.46255,-2.85378 -10.46255,-10.02381 v -22.67215 h 14.51002 v 0.079 z M 91.206571,341.22521 c -0.229252,4.4111 0,8.89336 0,13.22937 v 42.35218 h 23.980469 v -38.77507 c 0,-12.09498 -0.0751,-22.81445 0,-25.02 0.46245,-10.49022 3.30833,-17.33218 8.76293,-22.8856 h -1.22531 c -11.68786,0 -22.68006,6.61667 -27.984459,16.87764 -2.375517,4.49411 -3.221375,9.35978 -3.529678,14.22149 z"
     id="path2"
     inkscape:connector-curvature="0"
     style="fill:#4c0677;stroke-width:3.95260692"
     inkscape:export-filename="C:\Users\alex\sites\nu-invest-logo-4.png"
     inkscape:export-xdpi="74.161247"
     inkscape:export-ydpi="74.161247" />
  <path
     d="m 145.50353,300.59241 c -9.01194,0 -16.64047,3.49805 -22.41523,9.43092 17.94483,0 29.4983,12.01593 30.19396,31.26116 0.15415,4.41111 0.22925,27.98842 0.22925,27.98842 v 27.53386 h 24.03185 v -37.19403 c 0,-11.25702 0.079,-20.98834 -0.6917,-27.68407 -2.23322,-18.86184 -13.86575,-31.33626 -31.34813,-31.33626 z m 125.29764,58.18237 c 0.23321,-4.41111 0,-8.89732 0,-13.22938 v -42.35218 h -23.98046 v 38.77508 c 0,12.09497 0.0751,22.81049 0,25.02 -0.46246,10.49022 -3.30833,17.33218 -8.76293,22.88559 h 1.22531 c 11.68786,0 22.68006,-6.61666 27.98445,-16.88158 2.37947,-4.48621 3.22533,-9.27677 3.53363,-14.21753 z"
     id="path4"
     inkscape:connector-curvature="0"
     style="fill:#4c0677;stroke-width:3.95260692"
     inkscape:export-filename="C:\Users\alex\sites\nu-invest-logo-4.png"
     inkscape:export-xdpi="74.161247"
     inkscape:export-ydpi="74.161247" />
  <path
     d="m 216.50817,399.40758 c 9.01194,0 16.63652,-3.49806 22.41128,-9.43092 -17.94484,0 -29.49831,-12.01593 -30.19397,-31.26512 -0.15415,-4.40716 -0.22925,-15.35983 -0.22925,-27.98446 v -27.53386 h -24.03185 v 37.19403 c 0,11.25307 -0.079,20.98835 0.69171,27.68406 2.23322,18.78674 13.86574,31.33627 31.34812,31.33627 z m 93.27757,-65.48284 v 55.94915 h 12.6681 v -55.94915 z m -1.71148,-15.67209 c 0,-4.34786 3.65221,-8.12656 8.10284,-8.12656 4.45064,0 8.21352,3.7787 8.21352,8.12656 a 8.2649012,8.2649012 0 0 1 -8.21352,8.23724 c -4.45063,0 -8.10284,-3.66012 -8.10284,-8.23724 z"
     id="path6"
     inkscape:connector-curvature="0"
     style="fill:#4c0677;stroke-width:3.95260692"
     inkscape:export-filename="C:\Users\alex\sites\nu-invest-logo-4.png"
     inkscape:export-xdpi="74.161247"
     inkscape:export-ydpi="74.161247" />
</svg>
